<?xml version="1.0" standalone="no"?>
<!DOCTYPE svg PUBLIC "-//W3C//DTD SVG 20010904//EN"
 "http://www.w3.org/TR/2001/REC-SVG-20010904/DTD/svg10.dtd">
<svg version="1.0" xmlns="http://www.w3.org/2000/svg"
 width="888.000000pt" height="888.000000pt" viewBox="0 0 888.000000 888.000000"
 preserveAspectRatio="xMidYMid meet">
<metadata>
Created by potrace 1.14, written by Peter Selinger 2001-2017
</metadata>
<g transform="translate(0.000000,888.000000) scale(0.100000,-0.100000)"
fill="#000000" stroke="none">
<path d="M0 4440 l0 -4440 4440 0 4440 0 0 4440 0 4440 -4440 0 -4440 0 0
-4440z m3437 4023 c-2 -24 -10 -50 -18 -59 -12 -14 -14 -14 -26 2 -16 22 -17
82 -2 121 l11 28 20 -25 c15 -19 19 -35 15 -67z m4558 -645 c27 -31 27 -36 22
-123 -2 -49 -8 -98 -12 -108 -9 -22 -57 -48 -72 -39 -19 13 -33 76 -34 158 -2
63 2 88 17 112 23 41 45 40 79 0z m-4228 -470 c8 -15 10 -39 7 -57 -5 -25 -11
-31 -28 -29 -16 2 -22 11 -24 37 -7 75 19 103 45 49z m-3383 -306 c3 -5 11
-41 17 -79 10 -61 9 -75 -5 -103 -9 -18 -16 -38 -16 -44 0 -20 -40 -39 -55
-26 -18 15 -28 115 -17 173 13 64 57 110 76 79z m7853 -139 c37 -57 11 -203
-37 -203 -42 0 -50 138 -12 203 20 34 27 34 49 0z m-1803 1 c16 -42 0 -114
-23 -100 -12 8 -15 98 -4 109 11 11 20 8 27 -9z m-3900 -710 c19 -19 22 -113
5 -180 -14 -56 0 -89 42 -98 24 -4 29 -11 29 -34 0 -30 21 -55 55 -66 13 -4
29 -27 44 -66 13 -33 28 -60 33 -60 4 0 8 -15 8 -34 0 -45 9 -66 27 -66 11 0
13 -9 8 -44 -6 -38 -4 -46 13 -55 16 -9 20 -25 26 -108 4 -54 12 -104 18 -111
6 -7 10 -33 10 -57 -1 -25 2 -45 6 -45 11 0 32 -46 32 -71 0 -10 14 -33 30
-51 17 -17 30 -39 30 -49 0 -10 5 -21 10 -24 6 -4 10 5 10 19 0 14 4 26 8 26
14 0 32 -23 32 -42 0 -20 34 -25 46 -7 4 7 10 7 16 1 6 -6 17 -8 25 -5 8 3 20
-3 28 -13 13 -18 14 -16 15 19 0 21 7 54 15 74 8 19 15 44 15 54 0 11 5 19 10
19 6 0 10 11 10 24 0 14 5 28 10 31 6 3 10 15 10 26 0 12 7 19 20 19 10 0 28
9 38 21 18 19 21 19 36 4 12 -12 25 -15 44 -10 32 8 38 5 34 -17 -2 -10 1 -18
7 -18 21 0 41 13 41 26 0 18 12 18 57 -1 42 -18 79 -21 51 -4 -20 11 -24 44
-6 55 6 4 18 -2 26 -12 10 -13 16 -15 19 -6 3 8 10 6 22 -9 l17 -21 68 35 69
35 34 -20 c18 -11 37 -27 43 -37 7 -13 12 -14 29 -3 12 6 27 12 35 12 8 0 16
7 20 15 6 15 33 20 60 9 8 -3 18 -22 22 -42 9 -59 16 -71 23 -38 8 37 31 47
31 13 0 -13 7 -30 15 -37 9 -7 16 -32 17 -59 l1 -46 4 40 c5 51 15 60 39 38
21 -19 58 -180 48 -207 -3 -8 8 -44 25 -79 22 -47 31 -78 30 -113 -1 -64 10
-114 26 -114 13 0 35 -91 35 -146 0 -18 4 -35 9 -38 14 -9 71 -114 71 -130 0
-8 9 -17 20 -21 25 -8 60 -57 60 -84 0 -12 5 -21 10 -21 6 0 10 -13 10 -29 0
-17 5 -33 10 -36 6 -3 10 -17 10 -31 0 -15 6 -24 15 -24 8 0 15 5 15 10 0 6 7
10 15 10 8 0 15 -9 15 -19 0 -11 9 -23 20 -26 16 -5 20 -15 20 -55 0 -37 5
-52 19 -62 20 -14 51 -79 51 -109 0 -24 44 -21 64 6 14 17 17 18 26 5 13 -20
13 -66 -1 -91 -8 -16 -6 -29 9 -59 l19 -38 -24 -13 c-19 -10 -23 -21 -24 -63
-1 -29 -4 -39 -6 -23 -6 40 -31 34 -38 -10 -3 -21 -10 -51 -14 -68 -9 -29 -9
-28 -10 13 -1 46 -16 56 -30 20 -11 -28 -74 -88 -93 -88 -7 0 -21 -15 -31 -32
l-19 -33 -27 33 -27 33 -13 -48 c-11 -40 -14 -44 -21 -28 -4 11 -5 57 -2 103
5 79 4 82 -17 82 -19 0 -21 -6 -22 -52 l-2 -53 -6 57 c-7 65 -14 76 -37 58
-13 -12 -17 -11 -25 1 -5 8 -9 20 -9 27 0 6 -8 12 -18 12 -15 0 -17 7 -14 43
4 39 3 41 -11 22 -12 -15 -18 -17 -28 -8 -6 6 -18 9 -25 6 -21 -8 -17 -33 6
-33 15 0 20 -7 20 -29 0 -16 -6 -31 -15 -35 -9 -3 -15 -18 -15 -36 0 -16 -4
-30 -10 -30 -5 0 -10 10 -10 22 0 12 -7 29 -15 38 -17 19 -37 120 -24 120 12
0 11 47 -1 55 -5 3 -10 1 -10 -4 0 -6 -9 -11 -20 -11 -16 0 -20 7 -20 30 0 25
4 30 25 30 14 0 28 7 32 16 6 17 -14 94 -25 94 -4 0 -8 28 -9 63 -1 34 -5 72
-8 85 -6 26 -33 29 -51 5 -12 -16 -13 -14 -14 20 0 34 -12 48 -24 29 -10 -16
-81 -6 -84 12 -2 9 1 16 7 16 6 0 11 -4 11 -10 0 -16 27 -11 34 6 3 9 6 28 6
44 0 24 -5 29 -27 32 -20 2 -29 9 -31 25 -2 12 -10 24 -18 27 -19 7 -18 -18 1
-38 19 -18 19 -46 1 -46 -8 0 -17 11 -20 25 -10 38 -46 34 -46 -5 0 -16 -4
-30 -9 -30 -13 0 -18 41 -8 65 5 12 4 31 -2 45 l-10 25 -1 -30 c-1 -16 -5 -38
-8 -48 -7 -15 -10 -16 -27 -3 -15 10 -18 24 -16 60 2 44 0 47 -21 44 -19 -2
-24 2 -26 25 -3 28 -22 39 -22 12 0 -8 -7 -15 -15 -15 -8 0 -15 5 -15 10 0 16
-37 12 -44 -5 -3 -8 -15 -15 -26 -15 -26 0 -46 47 -31 72 18 29 13 48 -12 48
-13 0 -28 5 -35 12 -9 9 -12 5 -12 -21 0 -18 4 -40 9 -49 5 -11 2 -27 -10 -47
-11 -16 -19 -24 -19 -17 0 7 -14 12 -35 12 -19 0 -35 -4 -35 -10 0 -21 -27 -9
-41 18 l-14 27 -3 -42 c-3 -41 -4 -43 -37 -43 -20 0 -35 -6 -39 -15 -9 -24
-36 -18 -36 9 0 13 -7 37 -15 52 -8 16 -15 39 -15 51 0 12 -4 25 -10 28 -6 4
-10 -6 -10 -23 0 -42 -53 -92 -98 -92 -13 0 -23 -15 -36 -53 -16 -47 -56 -95
-56 -67 0 5 -4 10 -10 10 -12 0 -13 -57 -1 -62 4 -1 11 -19 15 -39 5 -31 4
-37 -14 -42 -16 -4 -20 0 -20 21 0 86 -11 216 -17 221 -32 23 -36 99 -11 198
8 35 7 49 -6 77 -9 19 -16 48 -16 66 0 45 -34 38 -38 -8 -2 -17 -9 -32 -16
-32 -8 0 -11 12 -8 35 3 28 1 35 -13 35 -18 0 -18 -20 0 -92 12 -45 -1 -78
-30 -78 -23 0 -25 -3 -25 -50 0 -43 -3 -50 -19 -50 -11 0 -21 -8 -24 -17 -2
-10 -8 1 -12 25 -5 26 -15 47 -26 53 -11 5 -19 16 -19 24 0 8 -6 15 -13 15 -8
0 -19 12 -26 27 -12 26 -14 27 -26 10 -12 -17 -14 -16 -20 15 -4 18 -14 37
-22 43 -9 7 -11 20 -7 42 7 35 34 54 34 24 0 -10 6 -33 14 -52 l14 -32 5 29
c4 16 9 52 12 79 l5 50 -13 -35 c-12 -30 -14 -31 -19 -14 -3 12 -1 29 4 38 11
19 4 46 -12 46 -5 0 -10 -6 -10 -14 0 -20 -21 -31 -30 -16 -10 17 -32 3 -28
-19 4 -23 -23 -101 -35 -101 -21 0 -36 36 -30 75 5 40 4 41 -23 40 -28 0 -29
2 -32 48 -2 26 -7 45 -12 42 -4 -3 -19 6 -31 20 -13 13 -29 25 -36 25 -6 0
-13 6 -16 13 -2 6 -8 0 -12 -15 -8 -30 -25 -38 -25 -13 0 11 -10 14 -40 13
-24 -1 -40 -6 -40 -14 0 -16 -27 -25 -56 -18 -13 3 -30 1 -37 -5 -10 -7 -17
-5 -27 9 -15 21 -40 27 -40 11 0 -5 -9 -13 -20 -16 -12 -4 -20 -15 -20 -28 0
-18 -2 -19 -10 -7 -9 13 -10 13 -11 0 0 -10 -3 -8 -8 5 -5 11 -5 28 0 37 12
22 12 78 0 78 -6 0 -55 -64 -67 -88 0 -1 -15 1 -32 4 -28 6 -31 10 -34 48 -2
33 -7 41 -23 41 -16 0 -21 -9 -26 -40 -5 -26 -5 -20 -3 20 2 33 7 72 10 88 5
21 3 27 -10 27 -11 0 -16 -9 -16 -27 0 -25 -1 -25 -18 -10 -27 25 -42 21 -42
-12 0 -16 -6 -36 -13 -43 -8 -7 -16 -20 -20 -28 -4 -10 -6 -8 -6 7 -1 12 6 29
15 38 12 11 14 25 10 48 -4 18 -9 47 -13 65 -3 17 -10 32 -16 32 -6 0 -8 -27
-4 -77 5 -69 4 -76 -9 -59 -8 11 -14 35 -14 54 0 19 -4 31 -10 27 -5 -3 -10
-17 -10 -30 0 -37 -21 -77 -38 -70 -25 9 -42 -15 -42 -61 0 -24 5 -44 10 -44
6 0 10 16 10 35 0 22 5 35 13 35 17 -1 47 -25 47 -39 0 -6 5 -11 10 -11 6 0
10 7 10 15 0 8 5 15 10 15 6 0 10 -9 10 -20 0 -15 -7 -20 -26 -20 -28 0 -53
-24 -54 -51 0 -18 -20 -29 -51 -29 -23 0 -25 -23 -3 -44 14 -15 14 -16 0 -16
-9 0 -16 -7 -16 -15 0 -8 -7 -15 -15 -15 -8 0 -15 7 -15 15 0 8 -6 15 -12 16
-10 0 -10 2 0 6 18 7 16 63 -3 63 -8 0 -15 -9 -15 -21 0 -11 -4 -17 -10 -14
-5 3 -10 15 -10 25 0 17 -17 37 -25 29 -2 -2 -5 -20 -7 -39 -3 -19 -7 -34 -11
-32 -4 1 -11 2 -17 2 -5 0 -10 9 -10 19 0 28 -11 52 -20 46 -5 -3 -11 13 -15
35 -4 22 -11 40 -16 40 -5 0 -9 12 -9 27 0 35 13 22 40 -42 l21 -50 -6 68 c-5
63 -4 67 15 67 19 0 21 -4 14 -45 -5 -40 -4 -45 12 -45 37 1 57 26 50 62 -4
18 -11 62 -16 98 -5 36 -12 75 -15 88 -10 40 -25 23 -25 -28 0 -43 -3 -50 -19
-50 -14 0 -18 5 -14 20 3 11 9 20 14 20 5 0 9 34 9 75 0 72 1 75 24 75 29 0
41 14 53 60 7 24 16 36 34 40 28 7 63 67 76 132 7 32 13 42 26 40 13 -2 17 4
17 24 0 32 21 94 31 94 15 0 69 109 69 139 0 21 5 31 15 31 8 0 21 12 29 28
12 22 15 23 16 8 0 -33 18 -5 22 34 3 34 5 35 43 35 34 0 40 3 43 23 2 13 10
22 21 22 10 0 39 16 64 35 25 19 48 35 51 35 2 0 6 -15 8 -32 4 -48 23 -36 23
15 0 23 6 46 13 50 6 4 12 17 12 27 0 11 5 20 10 20 6 0 10 7 10 16 0 8 4 13
8 10 5 -3 7 -19 4 -36 -5 -36 13 -41 22 -5 4 14 17 32 31 41 20 13 25 25 25
55 0 22 5 39 10 39 6 0 10 -11 10 -25 0 -14 1 -25 3 -25 1 0 17 4 35 9 29 9
32 8 32 -12 0 -14 10 -26 25 -33 28 -13 37 -7 54 40 13 31 34 30 39 -2 6 -37
27 -25 53 30 22 47 55 98 64 98 2 0 11 -7 19 -16z m5476 -893 c11 -22 14 -90
4 -115 -3 -9 -14 -16 -24 -16 -13 0 -19 11 -24 43 -4 24 -4 51 -1 60 3 9 7 24
10 32 6 21 22 19 35 -4z m-794 -133 c35 -77 14 -218 -32 -218 -19 0 -44 92
-44 162 0 45 5 63 20 78 28 28 34 26 56 -22z m-5866 -136 c0 -46 -3 -51 -35
-44 -30 5 -34 32 -5 32 15 0 20 7 20 25 0 14 5 25 10 25 6 0 10 -17 10 -38z
m-860 -251 c13 -25 13 -70 -1 -110 -13 -38 -22 -39 -37 -6 -32 69 4 178 38
116z m1347 -7 c-3 -3 -12 -4 -19 -1 -8 3 -5 6 6 6 11 1 17 -2 13 -5z m108 -43
c7 -12 -12 -24 -25 -16 -11 7 -4 25 10 25 5 0 11 -4 15 -9z m325 -7 c0 -2 -9
-4 -21 -4 -11 0 -18 4 -14 10 5 8 35 3 35 -6z m-157 -39 c-7 -21 -13 -19 -13
6 0 11 4 18 10 14 5 -3 7 -12 3 -20z m-808 -5 c3 -11 11 -20 16 -20 5 0 9 9 9
20 0 11 5 20 10 20 6 0 10 -11 10 -25 0 -19 -5 -25 -21 -25 -19 0 -20 -4 -16
-72 2 -40 2 -60 0 -43 -3 16 -10 33 -16 37 -14 9 -23 128 -9 128 6 0 14 -9 17
-20z m290 -21 c12 -18 16 -209 5 -209 -11 0 -15 34 -11 94 2 21 -2 42 -7 45
-9 5 -16 50 -13 74 2 11 19 9 26 -4z m-138 -85 c7 -20 -11 -38 -32 -30 -13 4
-14 10 -5 26 13 24 28 26 37 4z m-187 -59 c0 -29 -4 -45 -13 -45 -8 0 -11 14
-9 45 2 25 8 45 13 45 5 0 9 -20 9 -45z m291 -31 c-7 -32 -9 -34 -10 -11 -1
15 -5 27 -11 27 -14 0 -12 27 3 33 21 8 28 -8 18 -49z m959 31 c0 -10 -11 -15
-35 -15 -24 0 -35 5 -35 15 0 10 11 15 35 15 24 0 35 -5 35 -15z m37 9 c-3 -3
-12 -4 -19 -1 -8 3 -5 6 6 6 11 1 17 -2 13 -5z m-1123 -59 c-4 -8 -10 -15 -15
-15 -5 0 -9 7 -9 15 0 8 7 15 15 15 9 0 12 -6 9 -15z m56 -50 c0 -8 -4 -15
-10 -15 -5 0 -10 7 -10 15 0 8 5 15 10 15 6 0 10 -7 10 -15z m97 9 c-3 -3 -12
-4 -19 -1 -8 3 -5 6 6 6 11 1 17 -2 13 -5z m1083 -54 c0 -10 -7 -23 -15 -30
-12 -10 -15 -7 -21 14 -3 13 -3 29 0 35 10 15 36 1 36 -19z m208 -47 c2 -11
-4 -25 -12 -32 -13 -11 -16 -9 -22 13 -3 13 -3 30 1 36 10 16 30 6 33 -17z
m-1474 -48 c21 -31 12 -71 -17 -79 -32 -8 -40 7 -33 58 8 52 25 59 50 21z
m1489 -85 c15 0 16 -3 6 -21 -11 -22 -11 -22 -35 6 -13 16 -24 38 -24 49 1 19
2 18 18 -6 9 -16 25 -28 35 -28z m409 -20 c-2 -22 -7 -40 -11 -40 -4 0 -5 18
-3 40 2 22 7 40 11 40 4 0 5 -18 3 -40z m48 -20 c0 -11 -4 -20 -10 -20 -5 0
-10 9 -10 20 0 11 5 20 10 20 6 0 10 -9 10 -20z m-2000 -60 c0 -27 -3 -30 -30
-30 -20 0 -30 5 -30 15 0 8 7 15 15 15 8 0 15 7 15 15 0 8 7 15 15 15 10 0 15
-10 15 -30z m-130 -49 c0 -16 7 -48 16 -72 11 -33 13 -62 8 -115 -6 -74 1
-134 17 -134 5 0 9 8 10 18 0 14 2 14 8 -3 5 -11 6 -27 3 -34 -4 -10 -7 -11
-10 -3 -2 7 -10 12 -18 12 -8 0 -14 7 -14 15 0 8 -6 15 -14 15 -9 0 -16 17
-20 48 -4 26 -10 62 -13 80 -4 26 -2 32 12 32 12 0 15 5 11 16 -13 34 -19 154
-7 154 6 0 11 -13 11 -29z m142 -51 c-3 -32 0 -50 7 -50 26 0 8 -28 -21 -32
-47 -7 -68 1 -68 27 0 13 -7 31 -16 39 -8 9 -11 16 -5 16 6 0 11 8 11 17 0 15
2 14 15 -3 9 -12 12 -31 9 -51 -5 -29 -3 -33 15 -33 17 0 21 6 21 35 0 19 5
35 10 35 6 0 10 11 10 25 0 14 3 25 8 25 4 0 5 -22 4 -50z m4278 -60 c5 0 16
10 24 21 l15 22 7 -27 c8 -35 26 -29 41 15 l12 34 2 -35 2 -35 4 33 c4 32 17
42 26 20 4 -10 8 -9 16 2 8 12 12 9 17 -17 3 -17 12 -34 19 -37 7 -2 11 -15 8
-29 -3 -13 2 -30 9 -38 10 -10 14 -37 13 -92 -2 -72 -12 -109 -22 -79 -7 20
-43 15 -43 -7 0 -10 -7 -24 -15 -31 -8 -7 -15 -21 -15 -30 0 -25 -10 -50 -21
-50 -5 0 -9 18 -9 41 0 46 -23 51 -28 6 -4 -35 -16 -34 -52 6 l-29 32 -1 -34
c0 -33 -1 -34 -15 -15 -15 19 -15 19 -30 0 -8 -11 -15 -14 -15 -8 0 19 -24 14
-37 -7 -6 -10 -24 -22 -40 -26 -15 -3 -31 -12 -35 -18 -5 -8 -8 -6 -8 5 0 21
-42 62 -50 49 -3 -5 -17 -12 -33 -16 -20 -5 -28 -3 -33 9 -8 22 -24 20 -24 -3
0 -17 -18 -31 -41 -31 -16 0 -10 82 7 94 10 8 18 35 21 76 6 68 25 104 76 148
15 13 27 31 27 41 0 23 62 16 86 -10 22 -25 32 -24 36 3 2 15 19 31 53 48 l50
26 8 -28 c4 -15 12 -28 17 -28z m-2690 10 c0 -22 -5 -30 -17 -29 -11 0 -13 3
-5 6 6 2 12 16 12 29 0 13 2 24 5 24 3 0 5 -13 5 -30z m1098 -23 c-13 -13 -24
-20 -26 -16 -5 12 20 38 36 39 7 0 3 -10 -10 -23z m-1165 -13 c-4 -12 -8 -13
-14 -3 -9 15 -2 32 11 24 5 -3 6 -13 3 -21z m84 -36 c-3 -7 -5 -2 -5 12 0 14
2 19 5 13 2 -7 2 -19 0 -25z m-1771 -141 c8 -5 14 -23 14 -47 0 -33 -3 -40
-20 -40 -16 0 -20 7 -20 35 0 35 -13 47 -24 23 -10 -21 1 53 16 107 l13 50 3
-60 c2 -39 8 -63 18 -68z m179 93 c3 -5 1 -10 -4 -10 -6 0 -11 5 -11 10 0 6 2
10 4 10 3 0 8 -4 11 -10z m1465 -40 c0 -11 -7 -20 -15 -20 -8 0 -15 9 -15 20
0 11 7 20 15 20 8 0 15 -9 15 -20z m2967 -232 c-3 -7 -5 -2 -5 12 0 14 2 19 5
13 2 -7 2 -19 0 -25z"/>
<path d="M1873 5334 c-32 -36 -29 -54 7 -54 28 0 30 2 30 40 0 47 -7 49 -37
14z"/>
<path d="M1773 5160 c0 -107 0 -110 7 -41 4 43 12 77 18 79 17 5 15 22 -2 22
-8 0 -17 12 -19 28 -2 15 -4 -25 -4 -88z"/>
<path d="M2123 5105 c0 -22 2 -30 4 -17 2 12 2 30 0 40 -3 9 -5 -1 -4 -23z"/>
<path d="M1480 4994 c0 -8 5 -12 10 -9 6 3 10 10 10 16 0 5 -4 9 -10 9 -5 0
-10 -7 -10 -16z"/>
<path d="M1890 4985 c0 -20 4 -26 18 -23 9 2 17 12 17 23 0 11 -8 21 -17 23
-14 3 -18 -3 -18 -23z"/>
<path d="M2210 4985 c0 -15 4 -24 10 -20 6 3 10 12 10 20 0 8 -4 17 -10 20 -6
4 -10 -5 -10 -20z"/>
<path d="M2390 4875 c0 -18 4 -23 15 -19 8 4 15 15 15 25 0 10 -7 19 -15 19
-9 0 -15 -9 -15 -25z"/>
<path d="M2250 4860 c0 -20 5 -30 15 -30 10 0 15 10 15 30 0 20 -5 30 -15 30
-10 0 -15 -10 -15 -30z"/>
<path d="M1887 4873 c-14 -13 -7 -42 8 -37 8 4 15 15 15 25 0 19 -11 25 -23
12z"/>
<path d="M2160 4865 c0 -8 7 -15 15 -15 8 0 15 7 15 15 0 8 -7 15 -15 15 -8 0
-15 -7 -15 -15z"/>
<path d="M2480 4765 c0 -8 7 -15 15 -15 8 0 15 7 15 15 0 8 -7 15 -15 15 -8 0
-15 -7 -15 -15z"/>
<path d="M2736 4454 c-4 -20 -4 -50 0 -67 l8 -32 7 45 c4 25 10 55 14 68 5 16
3 22 -8 22 -9 0 -17 -14 -21 -36z"/>
<path d="M3702 4449 c-14 -26 -20 -50 -16 -65 7 -27 24 -33 24 -7 0 24 23 83
32 83 4 0 8 7 8 15 0 29 -26 15 -48 -26z"/>
<path d="M3171 4424 c0 -11 3 -14 6 -6 3 7 2 16 -1 19 -3 4 -6 -2 -5 -13z"/>
<path d="M3210 4425 c0 -8 5 -15 10 -15 6 0 10 7 10 15 0 8 -4 15 -10 15 -5 0
-10 -7 -10 -15z"/>
<path d="M3867 4413 c-4 -3 -7 -11 -7 -17 0 -6 5 -5 12 2 6 6 9 14 7 17 -3 3
-9 2 -12 -2z"/>
<path d="M3757 4373 c-4 -3 -7 -19 -7 -34 0 -22 4 -26 20 -22 14 4 20 14 20
34 0 27 -17 39 -33 22z"/>
<path d="M3290 4330 c0 -11 5 -20 10 -20 6 0 10 9 10 20 0 11 -4 20 -10 20 -5
0 -10 -9 -10 -20z"/>
<path d="M3960 4235 c0 -8 5 -15 10 -15 6 0 10 7 10 15 0 8 -4 15 -10 15 -5 0
-10 -7 -10 -15z"/>
<path d="M4022 4120 c0 -19 2 -27 5 -17 2 9 2 25 0 35 -3 9 -5 1 -5 -18z"/>
<path d="M4112 4028 c-17 -17 -15 -48 3 -48 10 0 15 10 15 30 0 34 -1 35 -18
18z"/>
<path d="M4160 3775 c0 -8 5 -15 10 -15 6 0 10 7 10 15 0 8 -4 15 -10 15 -5 0
-10 -7 -10 -15z"/>
<path d="M4680 3651 c0 -19 23 -71 31 -71 5 0 9 18 9 40 0 33 -3 40 -20 40
-11 0 -20 -4 -20 -9z"/>
<path d="M5690 3725 c0 -8 5 -15 10 -15 6 0 10 7 10 15 0 8 -4 15 -10 15 -5 0
-10 -7 -10 -15z"/>
</g>
</svg>
